<mxfile host="65bd71144e">
    <diagram id="-spBMI-vtHuflIPX27ag" name="Page-1">
        <mxGraphModel dx="1886" dy="565" grid="1" gridSize="10" guides="1" tooltips="1" connect="1" arrows="1" fold="1" page="1" pageScale="1" pageWidth="850" pageHeight="1100" math="0" shadow="0">
            <root>
                <mxCell id="0"/>
                <mxCell id="1" parent="0"/>
                <mxCell id="2" value="" style="image;aspect=fixed;html=1;points=[];align=center;fontSize=12;image=img/lib/azure2/app_services/App_Services.svg;" vertex="1" parent="1">
                    <mxGeometry x="-840" y="622" width="48" height="48" as="geometry"/>
                </mxCell>
                <mxCell id="3" value="" style="image;aspect=fixed;html=1;points=[];align=center;fontSize=12;image=img/lib/azure2/compute/Virtual_Machine.svg;" vertex="1" parent="1">
                    <mxGeometry x="-770" y="622" width="51.75" height="48" as="geometry"/>
                </mxCell>
                <mxCell id="4" value="" style="image;aspect=fixed;html=1;points=[];align=center;fontSize=12;image=img/lib/azure2/containers/Kubernetes_Services.svg;" vertex="1" parent="1">
                    <mxGeometry x="-700" y="622" width="54.4" height="48" as="geometry"/>
                </mxCell>
                <mxCell id="5" value="" style="image;aspect=fixed;html=1;points=[];align=center;fontSize=12;image=img/lib/azure2/databases/Azure_Database_MySQL_Server.svg;" vertex="1" parent="1">
                    <mxGeometry x="-630" y="616" width="45" height="60" as="geometry"/>
                </mxCell>
                <mxCell id="8" value="" style="image;aspect=fixed;html=1;points=[];align=center;fontSize=12;image=img/lib/azure2/analytics/Log_Analytics_Workspaces.svg;" vertex="1" parent="1">
                    <mxGeometry x="-425" y="598" width="78" height="78" as="geometry"/>
                </mxCell>
                <mxCell id="9" value="&lt;b&gt;&lt;font&gt;Azure services&lt;/font&gt;&lt;/b&gt;" style="text;html=1;align=center;verticalAlign=middle;whiteSpace=wrap;rounded=0;" vertex="1" parent="1">
                    <mxGeometry x="-800" y="700" width="120" height="10" as="geometry"/>
                </mxCell>
                <mxCell id="10" value="&lt;b&gt;&lt;font&gt;Log Analytics Workspace&lt;/font&gt;&lt;/b&gt;" style="text;html=1;align=center;verticalAlign=middle;whiteSpace=wrap;rounded=0;" vertex="1" parent="1">
                    <mxGeometry x="-476" y="710" width="180" height="10" as="geometry"/>
                </mxCell>
                <mxCell id="11" value="&lt;b&gt;&lt;font style=&quot;font-size: 14px;&quot;&gt;Telemetry Filter&lt;/font&gt;&lt;/b&gt;" style="text;html=1;align=center;verticalAlign=middle;whiteSpace=wrap;rounded=0;" vertex="1" parent="1">
                    <mxGeometry x="-570" y="670" width="120" height="10" as="geometry"/>
                </mxCell>
                <mxCell id="14" value="" style="endArrow=classic;startArrow=classic;html=1;exitX=0.654;exitY=-0.051;exitDx=0;exitDy=0;exitPerimeter=0;strokeWidth=2;strokeColor=#4D4D4D;" edge="1" parent="1" source="8">
                    <mxGeometry width="50" height="50" relative="1" as="geometry">
                        <mxPoint x="-420" y="530" as="sourcePoint"/>
                        <mxPoint x="-374.71488070183204" y="479.802609716653" as="targetPoint"/>
                    </mxGeometry>
                </mxCell>
                <mxCell id="15" value="" style="endArrow=classic;html=1;strokeWidth=2;" edge="1" parent="1">
                    <mxGeometry width="50" height="50" relative="1" as="geometry">
                        <mxPoint x="-570" y="650" as="sourcePoint"/>
                        <mxPoint x="-440" y="650" as="targetPoint"/>
                    </mxGeometry>
                </mxCell>
                <mxCell id="16" value="&lt;b&gt;&lt;font&gt;Signal or Data&lt;/font&gt;&lt;/b&gt;" style="text;html=1;align=center;verticalAlign=middle;whiteSpace=wrap;rounded=0;" vertex="1" parent="1">
                    <mxGeometry x="-360" y="530" width="100" height="10" as="geometry"/>
                </mxCell>
                <mxCell id="17" value="" style="rounded=0;whiteSpace=wrap;html=1;" vertex="1" parent="1">
                    <mxGeometry x="-585" y="340" width="430" height="140" as="geometry"/>
                </mxCell>
                <mxCell id="18" value="Scope&lt;br&gt;(Vm or App Serv)" style="rounded=1;whiteSpace=wrap;html=1;fillColor=#dae8fc;strokeColor=#6c8ebf;" vertex="1" parent="1">
                    <mxGeometry x="-570" y="360" width="100" height="50" as="geometry"/>
                </mxCell>
                <mxCell id="19" value="&lt;div&gt;&lt;font style=&quot;color: rgb(0, 0, 0);&quot;&gt;&lt;br&gt;&lt;/font&gt;&lt;/div&gt;&lt;font style=&quot;color: rgb(0, 0, 0);&quot;&gt;Type of Signal,&amp;nbsp;&lt;/font&gt;&lt;div&gt;&lt;font style=&quot;color: rgb(0, 0, 0);&quot;&gt;(Active, unavailable)&lt;span style=&quot;font-family: monospace; font-size: 0px; text-align: start; text-wrap: nowrap;&quot;&gt;%3CmxGraphModel%3E%3Croot%3E%3CmxCell%20id%3D%220%22%2F%3E%3CmxCell%20id%3D%221%22%20parent%3D%220%22%2F%3E%3CmxCell%20id%3D%222%22%20value%3D%22Scope%26lt%3Bbr%26gt%3B(Vm%20or%20App%20Serv)%22%20style%3D%22rounded%3D1%3BwhiteSpace%3Dwrap%3Bhtml%3D1%3BfillColor%3D%23dae8fc%3BstrokeColor%3D%236c8ebf%3B%22%20vertex%3D%221%22%20parent%3D%221%22%3E%3CmxGeometry%20x%3D%22-570%22%20y%3D%22360%22%20width%3D%22100%22%20height%3D%2250%22%20as%3D%22geometry%22%2F%3E%3C%2FmxCell%3E%3C%2Froot%3E%3C%2FmxGraphModel%3E&lt;br&gt;Active,&amp;nbsp;&lt;/span&gt;&lt;/font&gt;&lt;/div&gt;" style="rounded=1;whiteSpace=wrap;html=1;fillColor=#dae8fc;strokeColor=#6c8ebf;" vertex="1" parent="1">
                    <mxGeometry x="-450" y="360" width="130" height="50" as="geometry"/>
                </mxCell>
                <mxCell id="20" value="Conditions/ criteria&lt;br&gt;(CPU usage, memory)" style="rounded=1;whiteSpace=wrap;html=1;fillColor=#dae8fc;strokeColor=#6c8ebf;" vertex="1" parent="1">
                    <mxGeometry x="-310" y="360" width="140" height="50" as="geometry"/>
                </mxCell>
                <mxCell id="21" value="" style="verticalLabelPosition=bottom;html=1;verticalAlign=top;align=center;strokeColor=none;fillColor=#00BEF2;shape=mxgraph.azure.scheduler;pointerEvents=1;" vertex="1" parent="1">
                    <mxGeometry x="-570" y="430" width="40" height="40" as="geometry"/>
                </mxCell>
                <mxCell id="22" value="&lt;font&gt;&lt;b style=&quot;&quot;&gt;Scheduled&amp;nbsp;&lt;/b&gt;&lt;/font&gt;" style="text;html=1;align=center;verticalAlign=middle;whiteSpace=wrap;rounded=0;" vertex="1" parent="1">
                    <mxGeometry x="-520" y="445" width="80" height="10" as="geometry"/>
                </mxCell>
                <mxCell id="23" value="&lt;b&gt;&lt;font&gt;Alert Rule&lt;/font&gt;&lt;/b&gt;" style="text;html=1;align=center;verticalAlign=middle;whiteSpace=wrap;rounded=0;" vertex="1" parent="1">
                    <mxGeometry x="-300" y="460" width="100" height="10" as="geometry"/>
                </mxCell>
                <mxCell id="26" value="&lt;b style=&quot;scrollbar-color: light-dark(#e2e2e2, #4b4b4b)&lt;br/&gt;&#x9;&#x9;&#x9;&#x9;&#x9;light-dark(#fbfbfb, var(--dark-panel-color));&quot;&gt;Action Group&lt;/b&gt;" style="rounded=1;whiteSpace=wrap;html=1;fillColor=#dae8fc;strokeColor=#6c8ebf;" vertex="1" parent="1">
                    <mxGeometry x="-460" y="230" width="176.25" height="70" as="geometry"/>
                </mxCell>
                <mxCell id="27" value="" style="rounded=0;whiteSpace=wrap;html=1;fillColor=#d5e8d4;strokeColor=#82b366;" vertex="1" parent="1">
                    <mxGeometry x="-540" y="73.75" width="310" height="110" as="geometry"/>
                </mxCell>
                <mxCell id="28" value="" style="verticalLabelPosition=bottom;shadow=0;dashed=0;align=center;html=1;verticalAlign=top;strokeWidth=1;shape=mxgraph.mockup.misc.mail2;strokeColor=#6c8ebf;fillColor=#dae8fc;" vertex="1" parent="1">
                    <mxGeometry x="-530" y="92" width="60" height="35" as="geometry"/>
                </mxCell>
                <mxCell id="30" value="" style="points=[];aspect=fixed;html=1;align=center;shadow=0;dashed=0;fillColor=#66B2FF;strokeColor=none;shape=mxgraph.alibaba_cloud.sms_short_message_service;" vertex="1" parent="1">
                    <mxGeometry x="-460" y="91" width="46.41" height="42.5" as="geometry"/>
                </mxCell>
                <mxCell id="31" value="" style="verticalLabelPosition=bottom;html=1;verticalAlign=top;align=center;strokeColor=none;fillColor=#00BEF2;shape=mxgraph.azure.mobile;pointerEvents=1;" vertex="1" parent="1">
                    <mxGeometry x="-400" y="88.25" width="30" height="48" as="geometry"/>
                </mxCell>
                <mxCell id="33" value="" style="endArrow=classic;html=1;entryX=0.465;entryY=1.014;entryDx=0;entryDy=0;entryPerimeter=0;exitX=0.484;exitY=-0.021;exitDx=0;exitDy=0;exitPerimeter=0;strokeColor=#333333;" edge="1" parent="1" source="17" target="26">
                    <mxGeometry width="50" height="50" relative="1" as="geometry">
                        <mxPoint x="-380" y="340" as="sourcePoint"/>
                        <mxPoint x="-330" y="290" as="targetPoint"/>
                    </mxGeometry>
                </mxCell>
                <mxCell id="36" style="edgeStyle=none;html=1;entryX=0.523;entryY=1.002;entryDx=0;entryDy=0;entryPerimeter=0;exitX=0.46;exitY=0.043;exitDx=0;exitDy=0;exitPerimeter=0;strokeWidth=1;strokeColor=#1A1A1A;" edge="1" parent="1" source="26" target="27">
                    <mxGeometry relative="1" as="geometry">
                        <mxPoint x="-380" y="230" as="sourcePoint"/>
                    </mxGeometry>
                </mxCell>
                <mxCell id="37" value="&lt;b&gt;Alert Processing Rule&lt;br&gt;&lt;/b&gt;(Post Action: Suppress, Resend)" style="whiteSpace=wrap;html=1;aspect=fixed;fillColor=#dae8fc;strokeColor=#6c8ebf;" vertex="1" parent="1">
                    <mxGeometry x="-837.25" y="186.38" width="157.25" height="157.25" as="geometry"/>
                </mxCell>
                <mxCell id="39" value="" style="sketch=0;outlineConnect=0;fontColor=#232F3E;gradientColor=none;fillColor=#007FFF;strokeColor=none;dashed=0;verticalLabelPosition=bottom;verticalAlign=top;align=center;html=1;fontSize=12;fontStyle=0;aspect=fixed;pointerEvents=1;shape=mxgraph.aws4.backup_virtual_machine_monitor;" vertex="1" parent="1">
                    <mxGeometry x="-670" y="237.14" width="50" height="55.71" as="geometry"/>
                </mxCell>
                <mxCell id="41" style="edgeStyle=none;html=1;exitX=0.1;exitY=0.5;exitDx=0;exitDy=0;exitPerimeter=0;" edge="1" parent="1" source="40">
                    <mxGeometry relative="1" as="geometry">
                        <mxPoint x="-480" y="265" as="targetPoint"/>
                    </mxGeometry>
                </mxCell>
                <mxCell id="40" value="" style="shape=curlyBracket;whiteSpace=wrap;html=1;rounded=1;flipH=1;labelPosition=right;verticalLabelPosition=middle;align=left;verticalAlign=middle;" vertex="1" parent="1">
                    <mxGeometry x="-640" y="175" width="70" height="180" as="geometry"/>
                </mxCell>
                <mxCell id="42" value="&lt;font style=&quot;&quot;&gt;&lt;b&gt;Communication Channels&lt;/b&gt;&lt;/font&gt;" style="text;html=1;align=center;verticalAlign=middle;whiteSpace=wrap;rounded=0;" vertex="1" parent="1">
                    <mxGeometry x="-540" y="165" width="160" height="10" as="geometry"/>
                </mxCell>
                <mxCell id="44" value="" style="image;aspect=fixed;html=1;points=[];align=center;fontSize=12;image=img/lib/azure2/other/Azurite.svg;" vertex="1" parent="1">
                    <mxGeometry x="-320" y="80" width="50.48" height="49" as="geometry"/>
                </mxCell>
                <mxCell id="45" value="&lt;font style=&quot;&quot;&gt;&lt;b&gt;Automation Runbook&lt;/b&gt;&lt;/font&gt;" style="text;html=1;align=center;verticalAlign=middle;whiteSpace=wrap;rounded=0;" vertex="1" parent="1">
                    <mxGeometry x="-360" y="136.25" width="130" height="10" as="geometry"/>
                </mxCell>
            </root>
        </mxGraphModel>
    </diagram>
</mxfile>